<svg id="svg" xmlns="http://www.w3.org/2000/svg" xmlns:xlink="http://www.w3.org/1999/xlink" width="400" height="400" viewBox="0, 0, 400,400"><g id="svgg"><path id="path0" d="M221.640 58.311 C 221.278 59.367,216.689 88.995,216.847 89.252 C 216.992 89.486,219.630 90.004,219.630 89.798 C 219.630 89.769,220.712 83.011,222.035 74.780 C 224.902 56.948,224.817 58.273,223.110 58.073 C 222.361 57.986,221.716 58.090,221.640 58.311 M170.370 61.024 C 165.176 62.158,160.888 63.109,160.842 63.139 C 160.748 63.199,167.010 92.327,167.140 92.436 C 167.457 92.702,169.727 92.030,169.882 91.624 C 169.989 91.347,169.559 88.781,168.927 85.923 C 168.295 83.065,167.778 80.421,167.778 80.048 C 167.778 79.467,168.837 79.141,175.185 77.769 C 182.980 76.083,182.873 76.136,182.278 74.228 C 182.039 73.465,181.965 73.473,174.815 75.047 C 170.843 75.921,167.433 76.591,167.239 76.534 C 166.888 76.432,164.374 65.503,164.640 65.236 C 164.717 65.160,168.462 64.304,172.963 63.333 C 182.237 61.334,181.561 61.601,181.253 60.059 C 180.962 58.607,181.775 58.535,170.370 61.024 M234.119 61.740 C 231.170 73.127,226.654 91.221,226.740 91.306 C 227.738 92.284,229.610 91.815,229.954 90.500 C 230.158 89.716,231.846 83.074,233.703 75.741 C 235.561 68.407,237.161 62.129,237.260 61.789 C 237.432 61.194,237.298 61.114,235.112 60.507 C 234.638 60.376,234.393 60.679,234.119 61.740 M190.068 73.981 C 190.199 83.398,190.463 84.496,193.052 86.401 C 197.053 89.345,203.607 88.904,206.473 85.498 L 207.407 84.388 207.407 86.268 L 207.407 88.148 208.889 88.148 L 210.370 88.148 210.370 76.852 L 210.370 65.556 208.889 65.556 L 207.407 65.556 207.405 72.315 C 207.402 83.155,205.654 85.908,199.041 85.486 C 193.918 85.160,193.184 83.689,193.029 73.426 L 192.910 65.556 191.430 65.556 L 189.950 65.556 190.068 73.981 M258.429 73.120 C 253.990 74.704,251.961 79.281,253.982 83.148 C 254.408 83.963,256.773 86.620,259.237 89.053 C 265.187 94.928,265.779 97.077,262.178 99.728 C 258.956 102.101,250.843 98.305,248.105 93.143 C 247.123 91.292,246.858 91.193,245.629 92.217 C 243.429 94.051,250.091 100.821,255.846 102.598 C 260.950 104.175,264.771 102.994,266.650 99.259 C 268.685 95.214,267.944 93.428,261.670 87.259 C 256.211 81.890,255.717 80.992,256.800 78.401 C 258.788 73.642,267.165 75.342,271.505 81.384 L 272.675 83.014 273.560 82.183 C 274.754 81.062,274.694 80.758,272.873 78.690 C 268.964 74.248,262.380 71.709,258.429 73.120 M281.612 89.167 C 280.841 90.134,280.171 90.988,280.123 91.063 C 280.074 91.139,279.353 90.661,278.520 90.001 C 277.060 88.844,276.980 88.825,276.281 89.458 C 275.231 90.408,275.373 90.913,277.033 92.134 L 278.510 93.220 273.904 99.295 C 268.377 106.584,267.890 107.777,269.288 110.596 C 271.172 114.391,276.634 116.350,276.661 113.241 C 276.664 112.869,276.391 112.592,276.019 112.591 C 274.093 112.587,271.880 110.377,271.864 108.441 C 271.853 107.218,277.400 99.043,280.575 95.601 C 280.969 95.175,281.483 95.434,283.710 97.176 L 286.374 99.261 287.076 98.368 C 288.014 97.176,288.088 97.314,285.463 95.332 C 284.190 94.371,283.004 93.459,282.829 93.306 C 282.653 93.153,283.182 92.146,284.003 91.069 L 285.497 89.110 284.343 88.259 C 282.923 87.211,283.258 87.099,281.612 89.167 M122.785 89.300 C 121.132 91.130,120.370 92.830,120.370 94.691 L 120.370 96.072 119.227 94.517 C 118.598 93.662,117.999 92.963,117.895 92.963 C 117.487 92.963,115.554 94.252,115.645 94.463 C 115.874 95.002,128.722 112.580,128.889 112.584 C 128.991 112.587,129.563 112.198,130.160 111.720 L 131.246 110.851 127.468 105.639 C 121.565 97.497,121.125 95.083,124.849 91.270 L 126.321 89.761 125.541 88.770 C 124.526 87.480,124.409 87.502,122.785 89.300 M148.496 95.578 C 146.798 97.276,148.820 100.233,150.976 99.205 C 151.779 98.822,152.066 98.398,152.156 97.463 C 152.379 95.133,150.110 93.964,148.496 95.578 M107.748 103.373 C 100.773 104.407,96.441 112.639,99.607 118.844 C 103.648 126.765,112.928 128.119,118.841 121.649 C 121.380 118.870,123.318 113.345,121.759 113.328 C 121.505 113.325,120.921 113.223,120.463 113.100 C 119.809 112.925,119.630 113.031,119.630 113.593 C 119.630 119.708,112.495 124.668,107.175 122.253 C 104.637 121.100,104.621 121.129,111.712 114.009 L 118.333 107.360 117.037 106.245 C 114.275 103.869,111.074 102.879,107.748 103.373 M290.982 104.505 C 290.610 105.898,290.700 106.296,291.389 106.300 C 292.689 106.307,295.956 108.150,297.518 109.757 C 300.230 112.548,300.488 115.171,298.329 118.001 C 297.001 119.743,296.925 119.710,292.967 115.618 C 287.309 109.770,283.450 109.090,280.271 113.384 C 277.102 117.663,282.287 125.813,288.327 126.047 L 289.967 126.110 288.794 127.320 L 287.621 128.530 288.606 129.515 L 289.590 130.499 295.021 125.357 C 303.816 117.029,304.630 114.929,301.069 109.754 C 298.363 105.821,291.576 102.289,290.982 104.505 M112.113 106.489 C 114.816 107.619,114.901 107.428,108.989 113.477 C 102.517 120.099,103.287 119.594,102.310 117.854 C 98.691 111.416,105.370 103.672,112.113 106.489 M287.629 113.931 C 288.800 114.487,294.815 120.456,294.815 121.063 C 294.815 123.671,288.550 124.853,285.593 122.804 C 280.202 119.068,281.994 111.257,287.629 113.931 M89.640 123.606 C 84.926 125.270,81.349 132.195,82.902 136.650 C 83.377 138.014,83.332 138.020,81.481 136.852 C 79.637 135.688,79.557 135.693,78.770 137.024 L 78.121 138.123 80.079 139.411 C 81.156 140.119,87.033 143.867,93.139 147.741 L 104.242 154.783 104.931 153.693 C 105.890 152.180,105.943 152.239,100.420 148.733 C 95.828 145.820,95.546 145.576,96.531 145.375 C 101.156 144.432,104.836 140.320,105.408 135.455 C 106.332 127.590,97.390 120.871,89.640 123.606 M305.526 125.213 C 298.100 126.364,293.566 134.635,296.779 141.170 C 299.340 146.380,305.925 150.183,306.223 146.625 C 306.331 145.332,306.286 145.278,304.910 145.058 C 299.262 144.155,296.709 136.076,300.626 131.499 C 306.485 124.654,318.400 129.751,315.960 138.059 C 315.552 139.446,317.477 141.070,318.192 139.942 C 322.100 133.781,313.650 123.954,305.526 125.213 M97.468 127.137 C 102.434 129.701,103.978 134.864,101.124 139.364 C 96.199 147.131,83.187 141.694,85.200 132.711 C 86.483 126.987,92.171 124.403,97.468 127.137 M319.074 147.252 C 311.130 150.382,304.481 152.997,304.298 153.063 C 303.935 153.195,304.719 155.925,305.121 155.928 C 305.258 155.929,306.643 155.418,308.199 154.792 L 311.028 153.654 314.125 155.203 C 315.829 156.056,317.276 156.801,317.342 156.860 C 317.407 156.919,315.865 159.749,313.916 163.150 C 310.049 169.892,310.154 169.584,311.046 171.563 L 311.667 172.941 315.866 165.730 C 318.175 161.763,320.214 158.519,320.397 158.519 C 320.581 158.519,323.260 159.686,326.351 161.113 C 332.682 164.034,332.421 163.992,331.620 161.952 C 331.038 160.471,330.852 160.353,322.919 156.443 C 318.460 154.245,314.938 152.335,315.091 152.198 C 315.245 152.060,319.599 150.301,324.767 148.289 C 334.755 144.399,334.747 144.404,334.002 142.681 L 333.519 141.561 319.074 147.252 M75.999 149.652 C 68.949 153.175,67.546 163.061,73.352 168.306 C 80.357 174.635,90.643 171.126,92.578 161.749 C 94.418 152.835,84.341 145.483,75.999 149.652 M85.230 152.689 C 90.664 155.502,91.674 161.589,87.432 165.961 C 81.079 172.508,69.542 165.036,73.055 156.651 C 75.096 151.779,80.240 150.105,85.230 152.689 M56.170 172.870 C 56.077 173.023,55.942 173.648,55.871 174.259 L 55.741 175.370 61.481 176.553 C 84.302 181.256,86.744 181.712,86.901 181.302 C 86.991 181.068,87.100 180.395,87.143 179.806 L 87.222 178.735 72.407 175.678 C 57.080 172.515,56.454 172.407,56.170 172.870 M328.241 183.816 L 314.074 184.958 314.076 186.275 C 314.078 188.137,315.515 206.009,315.675 206.169 C 315.748 206.242,316.334 206.196,316.978 206.067 C 318.379 205.787,318.353 206.167,317.593 197.037 C 317.296 193.472,317.049 189.953,317.045 189.217 L 317.037 187.879 321.019 187.632 C 323.208 187.496,325.682 187.292,326.516 187.178 L 328.032 186.970 328.477 193.207 C 329.150 202.660,329.136 202.593,330.424 202.593 C 331.944 202.593,331.966 202.390,331.323 194.421 C 331.006 190.492,330.841 187.182,330.957 187.065 C 331.119 186.900,341.072 185.969,341.362 186.091 C 341.398 186.106,341.720 189.992,342.078 194.726 L 342.729 203.333 344.152 203.333 L 345.576 203.333 345.348 201.019 C 345.222 199.745,344.843 195.120,344.504 190.741 C 343.926 183.264,343.844 182.775,343.148 182.726 C 342.741 182.697,336.032 183.188,328.241 183.816 M68.105 186.392 C 55.152 193.097,65.852 212.253,78.956 205.818 C 85.250 202.728,87.478 192.194,82.774 187.774 L 81.852 186.908 80.938 187.767 L 80.024 188.625 80.896 189.661 C 84.901 194.421,81.737 202.719,75.469 203.895 L 74.120 204.148 74.283 202.167 C 74.527 199.203,75.185 187.650,75.185 186.333 L 75.185 185.185 72.810 185.185 C 70.853 185.185,70.025 185.398,68.105 186.392 M72.770 188.364 C 72.698 191.330,72.147 200.958,71.980 202.166 C 71.762 203.738,71.729 203.772,70.610 203.548 C 64.625 202.351,62.883 192.807,68.033 189.433 C 69.941 188.182,72.790 187.540,72.770 188.364 M62.111 211.350 C 62.396 213.152,61.358 212.698,72.569 215.926 C 77.876 217.454,82.219 218.787,82.220 218.889 C 82.221 218.991,78.222 221.491,73.333 224.444 C 67.428 228.012,64.507 229.980,64.630 230.308 C 64.732 230.579,64.815 231.217,64.815 231.724 C 64.815 233.049,64.794 233.060,75.885 226.296 L 85.906 220.185 85.911 218.889 C 85.913 218.176,85.792 217.414,85.642 217.197 C 85.441 216.903,69.609 212.042,62.517 210.096 C 61.976 209.947,61.918 210.126,62.111 211.350 M315.180 210.648 C 315.177 211.005,315.085 211.633,314.974 212.044 C 314.785 212.746,315.134 212.843,320.813 213.667 C 331.501 215.217,334.266 217.235,333.585 222.989 C 332.867 229.043,330.453 229.969,319.630 228.339 C 316.269 227.833,313.328 227.416,313.096 227.413 C 312.752 227.408,312.140 229.944,312.403 230.283 C 312.818 230.815,327.705 232.517,329.301 232.214 C 335.820 230.978,338.503 222.254,334.185 216.330 L 333.535 215.438 335.430 215.689 L 337.325 215.940 337.499 214.544 C 337.594 213.776,337.655 213.123,337.633 213.092 C 337.543 212.966,316.790 209.995,316.019 209.997 C 315.475 209.999,315.183 210.225,315.180 210.648 M83.793 232.588 C 83.114 233.675,83.199 233.887,84.727 234.898 C 88.058 237.102,89.468 242.682,87.638 246.421 C 86.797 248.140,84.529 250.370,83.622 250.370 C 83.497 250.370,82.110 246.495,80.540 241.759 C 77.181 231.626,77.604 232.278,75.125 233.417 C 64.343 238.374,67.652 254.348,79.431 254.208 C 89.582 254.086,94.721 243.847,88.888 235.369 C 86.943 232.543,84.615 231.271,83.793 232.588 M304.886 233.694 C 301.690 236.010,298.907 241.127,298.605 245.245 C 298.101 252.101,299.486 253.293,314.815 259.207 C 325.313 263.257,324.369 263.039,325.011 261.550 L 325.540 260.323 323.640 259.533 L 321.740 258.744 323.251 258.102 C 331.718 254.506,331.782 241.510,323.352 237.637 C 314.634 233.632,304.571 243.456,308.509 252.130 C 309.366 254.018,309.486 254.002,306.144 252.458 C 299.734 249.496,299.483 242.986,305.549 237.003 L 308.024 234.562 307.230 233.567 L 306.437 232.571 304.886 233.694 M80.893 251.164 C 80.785 251.339,79.999 251.478,79.145 251.473 C 71.159 251.431,68.170 240.762,74.984 236.618 L 76.111 235.932 78.600 243.390 C 79.969 247.491,81.001 250.990,80.893 251.164 M322.488 240.687 C 327.736 243.365,328.526 250.028,324.118 254.436 C 317.490 261.064,307.256 253.350,311.212 244.709 C 313.262 240.232,318.167 238.483,322.488 240.687 M84.968 257.342 C 76.762 260.179,72.580 268.181,75.115 276.197 C 75.859 278.551,83.138 290.741,83.800 290.741 C 83.992 290.741,89.782 287.221,96.668 282.919 L 109.186 275.097 105.307 268.938 C 98.301 257.812,92.756 254.650,84.968 257.342 M94.539 260.866 C 97.235 262.186,106.077 273.134,105.079 273.917 C 104.503 274.368,85.149 286.333,84.742 286.490 C 84.090 286.740,79.247 279.279,78.096 276.250 C 74.298 266.253,85.032 256.211,94.539 260.866 M299.268 261.364 C 298.839 262.091,298.537 262.721,298.596 262.763 C 298.722 262.853,317.476 273.753,317.834 273.944 C 317.967 274.015,318.415 273.497,318.830 272.794 L 319.585 271.514 318.404 270.804 C 317.754 270.413,314.806 268.680,311.852 266.952 C 308.898 265.224,305.034 262.962,303.265 261.926 L 300.048 260.042 299.268 261.364 M294.486 269.308 C 293.738 270.253,293.681 270.499,294.115 270.896 C 294.398 271.155,296.803 273.135,299.459 275.296 C 306.284 280.849,307.530 283.679,305.028 287.948 C 301.564 293.859,298.391 293.430,289.088 285.792 L 284.288 281.851 283.454 282.870 C 282.995 283.430,282.613 284.001,282.606 284.137 C 282.585 284.518,292.479 292.552,294.568 293.851 C 300.471 297.520,308.319 292.347,308.330 284.779 L 308.333 282.336 309.712 283.444 C 311.170 284.616,311.763 284.513,312.603 282.943 C 312.885 282.416,296.207 268.028,295.477 268.169 C 295.418 268.180,294.972 268.693,294.486 269.308 M323.698 274.745 C 322.126 276.018,322.858 278.519,324.803 278.519 C 326.858 278.519,327.851 275.797,326.214 274.651 C 325.153 273.908,324.711 273.924,323.698 274.745 M116.474 289.904 C 104.383 294.231,106.343 311.990,118.915 312.028 L 121.719 312.037 117.711 317.035 C 115.506 319.784,113.755 322.191,113.819 322.383 C 113.969 322.833,115.873 324.261,116.041 324.049 C 116.111 323.961,120.611 318.357,126.041 311.595 L 135.915 299.302 134.746 298.470 L 133.578 297.638 132.160 299.282 L 130.743 300.926 130.738 299.259 C 130.720 292.881,122.754 287.656,116.474 289.904 M275.553 291.087 C 269.391 292.961,263.175 302.183,268.050 302.217 C 268.725 302.221,268.956 301.911,269.301 300.543 C 270.804 294.573,279.032 291.620,283.426 295.472 C 284.418 296.342,284.532 296.222,276.812 302.407 L 269.550 308.224 271.158 309.863 C 278.353 317.193,290.525 312.074,289.940 301.964 C 289.519 294.688,282.116 289.091,275.553 291.087 M123.534 293.099 C 129.032 295.659,130.154 301.980,125.958 306.758 C 122.493 310.705,116.823 310.686,113.235 306.714 C 107.268 300.109,115.426 289.323,123.534 293.099 M287.038 300.724 C 288.772 306.962,281.906 312.798,276.111 310.012 C 273.388 308.703,273.060 308.285,274.107 307.456 C 274.598 307.067,277.417 304.813,280.370 302.447 C 286.267 297.725,286.209 297.740,287.038 300.724 M139.348 304.490 C 138.270 304.801,138.166 304.946,138.381 305.845 C 138.717 307.247,138.653 307.221,141.457 307.091 C 148.024 306.788,153.830 313.820,150.911 318.542 C 150.798 318.725,147.048 317.045,142.578 314.808 C 133.133 310.081,133.876 310.258,132.882 312.500 C 128.249 322.950,141.686 332.518,150.142 324.790 C 159.287 316.432,151.129 301.089,139.348 304.490 M252.812 305.361 C 247.737 307.448,243.883 312.678,246.698 313.659 C 247.358 313.889,247.913 314.035,247.930 313.983 C 250.300 307.118,259.940 304.776,263.496 310.202 C 264.276 311.393,265.322 310.667,255.741 315.576 C 251.259 317.872,247.526 319.804,247.444 319.870 C 247.073 320.167,250.163 324.188,251.515 325.167 C 254.531 327.352,259.267 327.700,262.593 325.982 C 275.404 319.362,266.160 299.874,252.812 305.361 M237.003 312.327 L 236.043 312.778 238.003 318.889 C 241.011 328.267,240.464 331.415,235.463 333.504 C 234.699 333.823,234.074 334.140,234.074 334.209 C 234.074 334.790,234.962 336.667,235.236 336.667 C 236.877 336.667,240.154 333.878,241.111 331.667 L 241.753 330.185 242.235 331.852 C 242.872 334.051,242.993 334.154,244.375 333.672 C 245.888 333.145,246.047 334.010,242.274 322.222 C 238.882 311.624,238.806 311.480,237.003 312.327 M265.841 315.911 C 266.557 323.361,257.284 327.385,252.064 321.890 C 251.468 321.262,251.051 320.682,251.138 320.600 C 251.982 319.807,265.070 313.440,265.327 313.697 C 265.510 313.881,265.741 314.877,265.841 315.911 M142.689 317.449 C 146.405 319.305,149.517 320.892,149.606 320.974 C 149.694 321.057,149.114 321.793,148.316 322.611 C 142.752 328.308,132.978 322.633,135.048 314.907 C 135.358 313.753,135.161 313.688,142.689 317.449 M166.802 314.869 C 166.073 315.809,151.748 341.871,151.893 341.995 C 151.972 342.062,152.637 342.210,153.370 342.323 L 154.702 342.528 161.318 330.650 C 167.305 319.900,167.958 318.875,168.192 319.849 C 168.334 320.441,169.244 326.426,170.214 333.148 C 172.165 346.667,171.917 345.749,173.704 346.065 L 175.000 346.295 181.667 334.485 C 185.333 327.990,188.389 322.727,188.458 322.790 C 188.527 322.852,189.443 328.869,190.495 336.159 L 192.407 349.415 193.852 349.713 C 194.647 349.877,195.357 349.951,195.431 349.878 C 195.571 349.738,191.123 318.787,190.935 318.593 C 190.876 318.532,190.108 318.449,189.229 318.408 L 187.630 318.333 181.130 329.869 C 177.555 336.214,174.571 341.349,174.499 341.281 C 174.427 341.213,173.486 335.303,172.407 328.148 C 171.329 320.993,170.360 315.052,170.254 314.946 C 169.761 314.452,167.171 314.395,166.802 314.869 M212.019 318.310 C 211.229 319.514,211.570 320.999,212.761 321.541 C 214.884 322.509,216.820 320.643,215.835 318.577 C 215.147 317.136,212.891 316.978,212.019 318.310 " stroke="none" fill="#000000" fill-rule="evenodd"></path></g></svg>